<svg id="Layer_1" data-name="Layer 1" xmlns="http://www.w3.org/2000/svg" viewBox="0 0 216 216"><defs><style>.cls-1{fill:#ec7a49;}</style></defs><path class="cls-1" d="M157.64,64.88a40.64,40.64,0,0,1,.82,17.24l16.3.12c.05-2.38.07-5.74-.12-9.77-.29-6.23-.46-9.77-1.38-13.33-2.18-8.49-7.84-14.17-10.34-16.62a49.25,49.25,0,0,0-22-12.1c-3.38-.86-5.78-1.11-18.38-1.44-13.17-.34-17.9-1.35-37.69.31-14.06,1.18-19.67,3-23.89,4.82-9,3.88-12.42,8.2-13.53,9.7a27.4,27.4,0,0,0-5.1,13.53c-.7,25.08-1.14,43.6-1.18,48.32,0,3.14,0,5.79,0,5.79.07,4.07.24,6.29.28,15.6,0,11.87-.23,15.51.06,19.37.07.92.22,2.14.41,3.57,1.08,7.87,2.09,15.28,6.3,21.73A32.77,32.77,0,0,0,61.43,183c6,3,11.17,3.62,18.42,4.41a160.68,160.68,0,0,0,18.32.62c3,0,5.45-.09,5.45-.09,2.94-.07,4.34-.16,9.46-.22,17.2-.22,19.51.53,26-.76A48.52,48.52,0,0,0,154,181.59a41.89,41.89,0,0,0,18.38-21.19,46.5,46.5,0,0,0,3-18.81c-.37-3.93-1.53-9,1.27-14a23.83,23.83,0,0,1,3.51-4.49,16.06,16.06,0,0,1,6.67-4.51,14.66,14.66,0,0,1,6.89-.41c.15,2.55.34,6.23.46,10.67.26,10.15.4,15.52-.51,22.26A58.86,58.86,0,0,1,189.8,167a57.66,57.66,0,0,1-11.48,17.43,70.85,70.85,0,0,1-30.6,18.33c-7.48,2.25-16.87,2.39-35.34,2.59-21.54.24-32.57.15-44.77-3.15S47.72,194.57,42,190.36c-3.57-2.63-7.87-5.87-11.49-11.23-5.81-8.62-6.38-17.6-6.73-25.1-1.69-36.73.61-69.51.45-81.11,0-.82-.07-4,.14-8.18A90.47,90.47,0,0,1,25.6,52.58a44.68,44.68,0,0,1,8.25-18.22c5.38-6.95,11.51-10.28,16.09-12.76,7.84-4.26,16.21-6.48,21-7.73,1.38-.37,2.56-.67,3.25-.81,5.35-1.1,13-1.38,38.23-1.1,21.79.24,24.52.55,28,1.23,6.37,1.23,17.5,3.49,28.72,11.08,3.34,2.26,20.39,14.26,24.17,33.36.48,2.4.53,9.76.64,24.48.05,7.34,0,13.38,0,17.43q-16.55.17-33.31.21-10.62,0-21.14,0c-.22-14.85-.46-25.64-.4-28.91a9.49,9.49,0,0,0-1.22-5.17,10.54,10.54,0,0,0-1.75-2.13c-3.44-3.19-16.18-3.17-19.14-3.17-9.81,0-19.61.53-29.41.41a11.81,11.81,0,0,0-6.43,1.43,10.16,10.16,0,0,0-4.34,6.34c-.74,2.89-.07,5.13.83,8.15a21.67,21.67,0,0,0,4.91,9.06,24.06,24.06,0,0,0,4.58,3.81,40.38,40.38,0,0,0,10.5,5c1.12.37-2.51-.8,18.52,7.9,3.66,1.51,12,5,20.66,9.07a39.87,39.87,0,0,1,10.95,7.37,35.92,35.92,0,0,1,2.62,2.82A38.6,38.6,0,0,1,159,143.28a27.61,27.61,0,0,1-3.39,15.13c-.6,1.06-6.66,11.4-18.83,14.3-1.19.29-5.56.35-14.25.47-10.49.14-17.08.2-18.15.21-20.29.16-20.23.31-22.16-.09-3-.64-14.07-3-19.88-11.2a27.85,27.85,0,0,1-3.68-8c-1.31-4.19-1.45-7.48-1.61-12.1-.18-5.36.25-7,.32-13.13.06-4.8-.14-8.71-.32-11.28A20.77,20.77,0,0,1,65.74,119c.9.36,6.84,2.85,9.42,8.61.68,1.5.9,3.07,1.33,6.2.36,2.55.29,3.69.5,9.59.23,6.36.39,7.5,1.39,8.77.66.83,2,2.19,6.2,3.34,5.78,1.6,9.84.79,16.1.54.44,0,6.26.08,17.9.28,9.82.17,13.3.28,16.55-2.05a11.56,11.56,0,0,0,4.13-5.54c2.13-5.93-1.71-11.54-3.22-13.74-4-5.83-9.32-8.4-20-13.54-4.2-2-4.76-2-21.22-9-5.37-2.28-8-3.41-8.72-3.73-9.84-4.64-16.86-8-21.84-14.37C58.94,87.49,58.45,80.24,58.16,76c-.36-5.34-.89-13.37,4.83-20.72C68,48.83,75.07,46.33,78.94,45c6.27-2.13,9.08-1.51,25.87-1.7,20.69-.23,25.95-1.28,34.91,1.88,6.3,2.22,9.38,4.75,11,6.36C155.22,55.91,156.51,60.72,157.64,64.88Z"/></svg>