<svg width="500" height="420" viewBox="0 0 500 420" fill="none" xmlns="http://www.w3.org/2000/svg">
<path d="M348.069 114.382C346.7 106.702 339.169 98.7697 332.128 94.9298C331.394 94.5088 330.662 94.1277 329.928 93.7488C313.987 103.277 284.84 118.687 250.609 123.371C247.969 123.75 244.742 123.2 242.736 124.763C236.43 129.615 235.159 146.579 219.56 146.958C217.405 151.686 215.451 156.242 213.348 160.124C215.898 157.042 234.532 159.964 239.265 160.884C243.907 161.77 263.933 166.478 263.081 170.168C266.601 163.625 265.233 157.002 262.934 150.08C290.856 145.44 329.537 128.392 348.069 114.382Z" fill="#FECFC4"/>
<path d="M103.861 185.569C98.8942 189.688 92.6237 192.444 85.8419 193.489C79.0605 194.533 72.0723 193.818 65.7614 191.435C59.4506 189.052 54.1004 185.107 50.3874 180.101C46.6744 175.094 44.7655 169.249 44.9018 163.306C45.0385 157.363 47.2141 151.588 51.1541 146.712C55.0939 141.836 60.621 138.078 67.0363 135.912C73.4517 133.747 80.4671 133.272 87.1954 134.547C93.9238 135.822 100.063 138.79 104.836 143.076C108.009 145.92 110.5 149.276 112.168 152.951C113.836 156.627 114.648 160.55 114.558 164.497C114.467 168.444 113.476 172.336 111.64 175.952C109.804 179.568 107.161 182.836 103.861 185.569Z" fill="#FECFC4"/>
<path d="M478.145 303.677C481.665 293.17 493.403 296.376 499.858 290.046C501.032 299.711 494.869 309.416 483.72 309.879L478.145 303.677Z" fill="#FECFC4"/>
<path d="M212.76 324.479C208.31 326.716 199.998 322.074 190.903 313.211C191.062 316.269 192.068 319.252 193.836 321.906C199.998 331.864 199.706 356.423 206.551 354.699C208.459 354.192 210.709 345.836 212.714 336.26C213.752 331.633 215.124 327.067 216.822 322.586C215.973 322.961 213.613 323.989 212.76 324.479Z" fill="#6153BD"/>
<path d="M241.222 112.864C242.12 115.117 243.442 117.226 245.135 119.108C249.436 118.561 254.217 117.435 255.108 115.733C255.264 115.447 255.395 115.15 255.501 114.847C254.376 117.927 247.872 115.86 241.222 112.864Z" fill="#6153BD"/>
<path d="M246.992 90.2036C238.336 82.3555 210.121 88.5152 191.001 100.458C171.784 112.441 177.31 123.666 202.199 118.519C200.733 118.897 184.79 123.032 174.375 133.364C159.068 148.555 172.369 154.378 189.525 151.34C210.013 147.711 227.618 133.196 233.583 123.152C236.323 117.234 238.181 111.04 239.114 104.719C231.975 99.6981 236.328 95.1403 240.238 98.6013C242.341 100.458 244.688 99.5718 242.097 93.5051C244.709 92.1069 247.844 91.6594 246.992 90.2036Z" fill="#6153BD"/>
<path d="M312.274 335.535C311.37 325.516 311.501 315.447 312.664 305.448C303.387 307.708 293.545 307.577 284.352 305.069C284.547 312.075 282.005 315.618 284.108 319.965C285.371 322.402 287.164 324.607 289.387 326.462C298.583 334.48 306.455 358.109 312.469 354.735C314.133 353.802 313.496 345.24 312.274 335.535Z" fill="#6153BD"/>
<path d="M220.291 158.774C219.851 160.732 219.162 162.643 218.237 164.471C210.266 161.052 212.125 158.816 220.291 158.774Z" fill="#6153BD"/>
<path d="M263.13 170.117C262.932 170.919 261.612 171.426 259.412 171.668C260.244 170.36 260.978 169.177 261.612 167.996C262.737 168.816 263.274 169.534 263.13 170.117Z" fill="#6153BD"/>
<path d="M285.036 234.854L279.9 247.555C279.705 242.618 279.51 237.765 279.41 232.997L285.036 234.854Z" fill="#6153BD"/>
<path d="M109.417 324.521C96.2857 305.124 78.8608 288.603 70.6285 291.34C59.4869 295.045 74.6034 324.753 83.2723 337.729C97.8444 359.503 115.449 374.271 122.793 370.863C133.467 365.731 116.029 334.285 109.417 324.521Z" fill="#6153BD"/>
<path d="M199.705 278.823C185.231 257.217 167.675 242.618 160.436 246.252C153.152 249.879 159.019 270.304 173.445 291.907C187.87 313.511 205.475 328.07 212.711 324.479C219.998 320.851 214.131 300.427 199.705 278.823Z" fill="#6153BD"/>
<path d="M205.698 322.58C204.005 327.06 202.633 331.627 201.59 336.253C199.608 345.834 197.34 354.201 195.427 354.692C188.594 356.465 188.851 331.87 182.712 321.899C180.94 319.247 179.934 316.265 179.779 313.205" stroke="#120071" stroke-width="1.5" stroke-linecap="round" stroke-linejoin="round"/>
<path d="M374.942 163.795C373.966 162.432 372.657 161.272 371.103 160.395C369.55 159.518 367.793 158.946 365.955 158.721C364.116 158.495 362.244 158.621 360.47 159.089C358.696 159.558 357.06 160.357 355.684 161.431C355.139 159.828 354.171 158.355 352.862 157.126C351.55 155.898 349.927 154.947 348.119 154.347C346.314 153.746 344.37 153.514 342.442 153.666C340.513 153.819 338.654 154.353 337.003 155.227C335.575 155.985 334.335 156.98 333.354 158.153C332.371 159.326 331.667 160.654 331.282 162.062C329.251 160.741 326.806 159.98 324.267 159.879C321.727 159.778 319.211 160.342 317.049 161.496C314.887 162.65 313.179 164.341 312.15 166.347C311.12 168.353 310.819 170.581 311.282 172.738C309.631 172.365 307.91 172.281 306.223 172.491C304.534 172.702 302.913 173.202 301.452 173.963C299.804 174.836 298.412 176.024 297.38 177.436C296.347 178.847 295.706 180.444 295.503 182.104C295.3 183.763 295.541 185.44 296.209 187.007C296.874 188.573 297.95 189.986 299.349 191.137C297.634 191.721 296.088 192.62 294.82 193.773C293.551 194.926 292.588 196.304 292.003 197.811C291.415 199.319 291.217 200.919 291.422 202.499C291.625 204.079 292.229 205.602 293.187 206.96C294.524 208.869 296.525 210.368 298.9 211.245C301.278 212.123 303.915 212.335 306.439 211.855L374.703 175.738C376.421 174.845 378.509 168.765 374.942 163.795Z" stroke="#120071" stroke-width="1.5" stroke-linecap="round" stroke-linejoin="round"/>
<path d="M323.158 180.546C324.771 181.858 325.811 183.609 326.103 185.504C326.396 187.4 325.924 189.325 324.763 190.955C323.602 192.585 321.828 193.82 319.738 194.453C317.645 195.086 315.365 195.078 313.28 194.43" stroke="#120071" stroke-width="1.5" stroke-linecap="round" stroke-linejoin="round"/>
<path d="M353.574 173.121C353.301 174.828 352.428 176.421 351.067 177.682C349.706 178.943 347.927 179.811 345.975 180.167C344.021 180.522 341.988 180.348 340.152 179.668C338.318 178.989 336.773 177.836 335.725 176.369C335.281 175.736 334.937 175.055 334.698 174.344" stroke="#120071" stroke-width="1.5" stroke-linecap="round" stroke-linejoin="round"/>
<path d="M355.677 161.431C354.363 162.501 353.271 163.758 352.45 165.147" stroke="#120071" stroke-width="1.5" stroke-linecap="round" stroke-linejoin="round"/>
<path d="M303.802 190.426C302.284 190.492 300.784 190.732 299.341 191.14" stroke="#120071" stroke-width="1.5" stroke-linecap="round" stroke-linejoin="round"/>
<path d="M331.275 162.065C330.954 163.44 330.903 164.851 331.118 166.241" stroke="#120071" stroke-width="1.5" stroke-linecap="round" stroke-linejoin="round"/>
<path d="M316.12 174.697C314.654 173.801 313.013 173.138 311.275 172.74" stroke="#120071" stroke-width="1.5" stroke-linecap="round" stroke-linejoin="round"/>
<path d="M392.353 188.184C388.725 183.028 381.237 182.108 379.932 182.952L311.617 219.116C309.663 220.128 306.979 226.255 310.69 231.435C311.655 232.789 312.952 233.946 314.488 234.821C316.026 235.698 317.767 236.272 319.59 236.505C321.413 236.735 323.272 236.62 325.039 236.166C326.803 235.711 328.433 234.929 329.809 233.872C330.593 236.197 332.257 238.229 334.532 239.644C336.807 241.06 339.564 241.778 342.368 241.687C345.172 241.594 347.861 240.697 350.005 239.135C352.149 237.575 353.626 235.439 354.203 233.07C356.222 234.404 358.661 235.182 361.201 235.299C363.74 235.419 366.262 234.872 368.437 233.731C370.609 232.589 372.332 230.91 373.38 228.909C374.425 226.908 374.746 224.682 374.301 222.521C377.01 223.113 379.871 222.911 382.433 221.949C384.996 220.986 387.117 219.315 388.46 217.201C389.803 215.085 390.293 212.646 389.854 210.261C389.415 207.88 388.072 205.691 386.036 204.04C387.769 203.472 389.338 202.582 390.63 201.433C391.919 200.284 392.902 198.904 393.506 197.39C394.107 195.877 394.317 194.267 394.117 192.676C393.919 191.085 393.316 189.551 392.353 188.184Z" stroke="#120071" stroke-width="1.5" stroke-linecap="round" stroke-linejoin="round"/>
<path d="M351.519 220.465C351.016 218.996 350.056 217.675 348.741 216.647C347.426 215.619 345.811 214.923 344.068 214.635C342.324 214.347 340.524 214.48 338.863 215.016C337.201 215.555 335.743 216.474 334.649 217.68C333.578 218.87 332.887 220.281 332.644 221.772" stroke="#120071" stroke-width="1.5" stroke-linecap="round" stroke-linejoin="round"/>
<path d="M372.989 200.472C371.107 199.912 369.068 199.865 367.152 200.34C365.239 200.815 363.54 201.787 362.289 203.125C361.039 204.463 360.294 206.101 360.163 207.816C360.029 209.531 360.512 211.241 361.544 212.71C361.986 213.348 362.53 213.931 363.159 214.44" stroke="#120071" stroke-width="1.5" stroke-linecap="round" stroke-linejoin="round"/>
<path d="M386.043 204.051C384.32 204.6 382.5 204.886 380.664 204.895" stroke="#120071" stroke-width="1.5" stroke-linecap="round" stroke-linejoin="round"/>
<path d="M332.516 230.828C331.784 231.954 330.872 232.984 329.809 233.892" stroke="#120071" stroke-width="1.5" stroke-linecap="round" stroke-linejoin="round"/>
<path d="M374.309 222.532C372.735 222.142 371.245 221.533 369.9 220.729" stroke="#120071" stroke-width="1.5" stroke-linecap="round" stroke-linejoin="round"/>
<path d="M354.349 228.561C354.583 230.066 354.534 231.59 354.21 233.081" stroke="#120071" stroke-width="1.5" stroke-linecap="round" stroke-linejoin="round"/>
<path d="M311.616 219.116L304.332 222.911" stroke="#120071" stroke-width="1.5" stroke-linecap="round" stroke-linejoin="round"/>
<path d="M306.435 211.857L299.245 215.612" stroke="#120071" stroke-width="1.5" stroke-linecap="round" stroke-linejoin="round"/>
<path d="M268.537 241.69L190.882 282.366" stroke="#120071" stroke-width="1.5" stroke-linecap="round" stroke-linejoin="round"/>
<path d="M266.97 232.532L185.941 275.025" stroke="#120071" stroke-width="1.5" stroke-linecap="round" stroke-linejoin="round"/>
<path d="M335.921 115.142C353.312 113.754 370.799 116.731 386.275 123.715C401.751 130.7 414.561 141.394 423.161 154.511C449.136 193.032 435.53 242.782 392.792 265.615C366.059 279.898 358.64 272.347 306.728 285.114" stroke="#120071" stroke-width="1.5" stroke-linecap="round" stroke-linejoin="round"/>
<path d="M202.149 324.151C225.896 313.464 247.118 304.123 268.975 296.418" stroke="#120071" stroke-width="1.5" stroke-linecap="round" stroke-linejoin="round"/>
<path d="M204.865 210.295C188.388 221.688 170.341 232.787 149.265 246.205" stroke="#120071" stroke-width="1.5" stroke-linecap="round" stroke-linejoin="round"/>
<path d="M275.675 144.046C265.427 157.342 253.928 169.888 241.297 181.559" stroke="#120071" stroke-width="1.5" stroke-linecap="round" stroke-linejoin="round"/>
<path d="M318.757 93.7909C327.02 97.7992 335.432 106.028 336.947 114.382C318.413 128.392 279.734 145.44 251.812 150.08C254.111 157.002 255.479 163.627 251.959 170.168C252.811 166.483 233.078 161.834 228.143 160.884C223.325 159.955 204.755 157.07 202.226 160.124C204.329 156.242 206.286 151.684 208.438 146.958C224.037 146.579 225.282 129.591 231.614 124.763C233.609 123.243 236.75 123.752 239.487 123.371C273.698 118.57 302.865 103.285 318.806 93.7488L318.757 93.7909Z" stroke="#120071" stroke-width="1.5" stroke-linecap="round" stroke-linejoin="round"/>
<path d="M205.025 167.635C219.025 167.443 232.812 170.603 244.856 176.764" stroke="#120071" stroke-width="1.5" stroke-linecap="round" stroke-linejoin="round"/>
<path d="M244.153 115.297C242.558 117.703 236.396 115.7 230.1 112.86C230.997 115.113 232.319 117.222 234.013 119.104" stroke="#120071" stroke-width="1.5" stroke-linecap="round" stroke-linejoin="round"/>
<path d="M237.675 123.528C234.267 122.806 235.179 121.375 234.013 119.108C243.206 117.936 244.798 116.476 244.42 112.501C243.868 106.726 239.94 94.1454 235.87 90.2036" stroke="#120071" stroke-width="1.5" stroke-linecap="round" stroke-linejoin="round"/>
<path d="M251.813 150.08C248.975 150.545 246.238 150.882 243.693 151.094" stroke="#120071" stroke-width="1.5" stroke-linecap="round" stroke-linejoin="round"/>
<path d="M230.98 93.4962C233.571 99.5718 231.236 100.458 229.121 98.5924C225.207 95.1337 220.858 99.7003 227.996 104.71C227.065 111.034 225.209 117.229 222.47 123.15C216.505 133.193 198.901 147.709 178.412 151.338C161.247 154.376 147.946 148.553 163.262 133.362C173.677 123.023 189.621 118.889 191.087 118.516C166.197 123.664 160.677 112.445 179.889 100.456C199.013 88.5197 227.223 82.3533 235.879 90.2014C236.706 91.6461 233.494 92.1557 230.98 93.4962Z" stroke="#120071" stroke-width="1.5" stroke-linecap="round" stroke-linejoin="round"/>
<path d="M208.438 146.958C211.021 140.928 214.349 135.156 218.365 129.741C219.953 127.692 221.311 125.516 222.422 123.245" stroke="#120071" stroke-width="1.5" stroke-linecap="round" stroke-linejoin="round"/>
<path d="M241.372 181.492C244.763 177.183 247.817 172.684 250.515 168.025" stroke="#120071" stroke-width="1.5" stroke-linecap="round" stroke-linejoin="round"/>
<path d="M347.609 91.7236C354.991 90.2036 361.069 93.0752 360.566 95.5214C360.453 96.0118 360.219 96.4757 359.883 96.8828C359.544 97.29 359.113 97.6308 358.612 97.8834" stroke="#120071" stroke-width="1.5" stroke-linecap="round" stroke-linejoin="round"/>
<path d="M346.923 87.8416C354.699 86.2374 362.425 89.6142 359.1 93.1594" stroke="#120071" stroke-width="1.5" stroke-linecap="round" stroke-linejoin="round"/>
<path d="M336.116 111.344C340.717 106.812 346.62 103.407 353.233 101.471" stroke="#120071" stroke-width="1.5" stroke-linecap="round" stroke-linejoin="round"/>
<path d="M347.314 96.2792C354.503 95.014 359.238 97.4602 358.953 99.8665C358.601 102.82 351.763 107.294 345.994 104.424" stroke="#120071" stroke-width="1.5" stroke-linecap="round" stroke-linejoin="round"/>
<path d="M341.251 85.6038C341.348 85.5196 344.332 81.9345 343.012 80.7934C341.888 79.8229 325.652 91.3425 321.104 95.014" stroke="#120071" stroke-width="1.5" stroke-linecap="round" stroke-linejoin="round"/>
<path d="M350.59 87.4184C363.501 82.0608 366.967 75.5974 364.528 76.7829C356.388 80.2993 348.027 83.4266 339.489 86.151C332.88 88.3209 326.671 91.3062 321.055 95.014" stroke="#120071" stroke-width="1.5" stroke-linecap="round" stroke-linejoin="round"/>
<path d="M301.543 305.448C300.39 315.447 300.259 325.516 301.153 335.535C302.398 345.238 303.009 353.804 301.348 354.734C295.329 358.105 287.443 334.496 278.266 326.462C276.037 324.609 274.245 322.402 272.987 319.965C270.879 315.611 273.434 312.062 273.228 305.033" stroke="#120071" stroke-width="1.5" stroke-linecap="round" stroke-linejoin="round"/>
<path d="M188.584 278.823C203.028 300.418 208.882 320.858 201.59 324.468C194.359 328.061 176.749 313.497 162.323 291.896C147.898 270.295 142.035 249.883 149.315 246.247C156.595 242.611 174.127 257.209 188.584 278.823Z" stroke="#120071" stroke-width="1.5" stroke-linecap="round" stroke-linejoin="round"/>
<path d="M114.362 358.969C110.706 339.331 88.7258 306.657 70.8798 294.859C61.6614 288.697 55.0597 289.787 55.8146 300.121C57.2474 319.73 82.5529 357.562 101.441 368.663C111.928 374.822 116.437 370.116 114.362 358.969Z" stroke="#120071" stroke-width="1.5" stroke-linecap="round" stroke-linejoin="round"/>
<path d="M112.157 370.641L126.675 363.394C128.074 362.448 129.025 361.094 129.349 359.587C129.673 358.08 129.349 356.523 128.437 355.206C134.214 362.716 145.551 354.963 141.003 348.455C145.222 354.659 158.487 350.653 153.033 341.241C154.269 342.623 156.031 343.583 158.008 343.953C159.985 344.325 162.05 344.081 163.839 343.266C169.744 340.013 167.554 333.687 163.89 323.391C157.036 305.707 146.163 289.379 131.908 275.364C128.482 271.844 124.56 268.704 120.233 266.023C113.389 262.36 105.691 265.106 108.339 275.07C106.161 271.939 103.606 269.892 99.2898 270.891C98.2 271.152 97.1953 271.629 96.3543 272.28C95.5131 272.934 94.8586 273.745 94.4421 274.653C94.0253 275.559 93.8579 276.539 93.9529 277.511C94.0477 278.484 94.4023 279.424 94.9888 280.259C94.9888 280.259 89.9225 274.733 84.181 278.657C82.7551 279.616 81.7945 280.999 81.4869 282.535C81.1793 284.072 81.5465 285.652 82.5171 286.968C82.0549 286.264 81.4355 285.648 80.695 285.151C79.9544 284.655 79.1076 284.292 78.2027 284.079C77.2981 283.866 76.3539 283.813 75.4244 283.917C74.4948 284.021 73.5989 284.285 72.7878 284.69L59.1221 291.475" stroke="#120071" stroke-width="1.5" stroke-linecap="round" stroke-linejoin="round"/>
<path d="M467.023 303.677C460.991 306.551 455.209 309.795 449.714 313.382C433.573 324.14 417.83 337.645 419.927 340.009C422.025 342.373 441.107 332.672 457.286 321.906C462.709 318.228 467.809 314.209 472.544 309.879" stroke="#120071" stroke-width="1.5" stroke-linecap="round" stroke-linejoin="round"/>
<path d="M467.023 303.677C470.544 293.17 482.281 296.376 488.737 290.046C489.91 299.711 483.747 309.416 472.598 309.879L467.023 303.677Z" stroke="#120071" stroke-width="1.5" stroke-linecap="round" stroke-linejoin="round"/>
<path d="M451.742 312.059L459.297 320.512" stroke="#120071" stroke-width="1.5" stroke-linecap="round" stroke-linejoin="round"/>
<path d="M478.517 101.555L472.11 113.939H483.845L477.39 126.325" stroke="#120071" stroke-width="1.5" stroke-linecap="round" stroke-linejoin="round"/>
<path d="M250.49 407.438L224.476 408.112" stroke="#120071" stroke-width="1.5" stroke-linecap="round" stroke-linejoin="round"/>
<path d="M237.874 419L237.091 396.55" stroke="#120071" stroke-width="1.5" stroke-linecap="round" stroke-linejoin="round"/>
<path d="M209.17 158.774C208.73 160.732 208.042 162.643 207.116 164.471C199.146 161.052 201.005 158.816 209.17 158.774Z" stroke="#120071" stroke-width="1.5" stroke-linecap="round" stroke-linejoin="round"/>
<path d="M251.959 170.168C251.722 170.932 250.467 171.431 248.343 171.679" stroke="#120071" stroke-width="1.5" stroke-linecap="round" stroke-linejoin="round"/>
<path d="M209.17 158.774C208.368 163.568 205.548 167.939 201.248 171.052C182.031 184.218 181.733 202.657 195.771 216.457" stroke="#120071" stroke-width="1.5" stroke-linecap="round" stroke-linejoin="round"/>
<path d="M58.2665 291.936L36.5996 302.536" stroke="#120071" stroke-width="1.5" stroke-linecap="round" stroke-linejoin="round"/>
<path d="M111.163 371.104L91.7119 380.896" stroke="#120071" stroke-width="1.5" stroke-linecap="round" stroke-linejoin="round"/>
<path d="M82.3218 386.001L67.896 393.26" stroke="#120071" stroke-width="1.5" stroke-linecap="round" stroke-linejoin="round"/>
<path d="M26.5262 307.98L11.8076 315.197" stroke="#120071" stroke-width="1.5" stroke-linecap="round" stroke-linejoin="round"/>
<path d="M72.1997 337.729L24.814 361.907" stroke="#120071" stroke-width="1.5" stroke-linecap="round" stroke-linejoin="round"/>
<path d="M15.377 367.014L1 374.229" stroke="#120071" stroke-width="1.5" stroke-linecap="round" stroke-linejoin="round"/>
<path d="M92.7385 185.569C87.7721 189.689 81.5016 192.444 74.7199 193.489C67.9384 194.533 60.9502 193.818 54.6394 191.435C48.3285 189.052 42.9783 185.107 39.2653 180.101C35.5523 175.094 33.6434 169.249 33.7798 163.306C33.9164 157.363 36.0921 151.588 40.032 146.712C43.9718 141.836 49.4989 138.078 55.9143 135.912C62.3296 133.747 69.345 133.272 76.0734 134.547C82.8017 135.822 88.9407 138.79 93.7142 143.076C96.8865 145.92 99.378 149.276 101.046 152.951C102.714 156.627 103.526 160.55 103.436 164.497C103.345 168.444 102.354 172.336 100.518 175.952C98.6824 179.568 96.0388 182.836 92.7385 185.569Z" stroke="#120071" stroke-width="1.5" stroke-linecap="round" stroke-linejoin="round"/>
<path d="M103.398 165.685C114.206 170.117 120.603 174.327 119.683 176.985C118.037 181.787 93.7153 179.939 65.3054 172.849C36.8956 165.758 15.1748 156.113 16.795 151.305C17.7194 148.56 25.9389 147.97 38.1076 149.28" stroke="#120071" stroke-width="1.5" stroke-linecap="round" stroke-linejoin="round"/>
<path d="M197.691 197.045C199.109 204.724 204.111 211.766 210.846 213.587C231.879 219.264 268.303 233.039 268.303 233.039C268.757 254.771 271.037 278.684 268.598 303.677C280.261 307.914 293.351 308.168 305.225 304.393C307.279 280.806 308.596 258.188 308.108 237.3C307.998 232.102 306.604 226.986 304.015 222.291C301.424 217.598 297.704 213.434 293.097 210.084C274.093 196.527 252.904 185.426 230.197 177.129" stroke="#120071" stroke-width="1.5" stroke-linecap="round" stroke-linejoin="round"/>
<path d="M268.291 233.039L273.914 234.854L268.781 247.555" stroke="#120071" stroke-width="1.5" stroke-linecap="round" stroke-linejoin="round"/>
<path d="M269.613 287.008C281.502 290.529 294.302 291.07 306.532 288.57" stroke="#120071" stroke-width="1.5" stroke-linecap="round" stroke-linejoin="round"/>
<path d="M258.854 1V8.04828" stroke="#120071" stroke-width="1.5" stroke-linecap="round" stroke-linejoin="round"/>
<path d="M274.745 14.7133H266.577" stroke="#120071" stroke-width="1.5" stroke-linecap="round" stroke-linejoin="round"/>
<path d="M258.854 28.4287V21.3804" stroke="#120071" stroke-width="1.5" stroke-linecap="round" stroke-linejoin="round"/>
<path d="M242.962 14.7133H251.133" stroke="#120071" stroke-width="1.5" stroke-linecap="round" stroke-linejoin="round"/>
<path d="M266.577 14.7133C265.563 14.7155 264.557 14.5449 263.619 14.2108C262.68 13.8766 261.827 13.3856 261.111 12.7663C260.392 12.147 259.824 11.4114 259.437 10.6015C259.049 9.79194 258.851 8.92421 258.854 8.04831C258.856 8.92404 258.658 9.79159 258.271 10.6011C257.886 11.4107 257.316 12.1461 256.599 12.7656C255.88 13.3849 255.028 13.8757 254.09 14.2101C253.153 14.5442 252.147 14.7153 251.132 14.7133C252.147 14.7113 253.153 14.8823 254.09 15.2167C255.03 15.5511 255.883 16.0421 256.599 16.6618C257.316 17.2813 257.886 18.0172 258.273 18.827C258.658 19.6367 258.856 20.5046 258.854 21.3805C258.851 20.5044 259.049 19.6364 259.437 18.8264C259.822 18.0165 260.392 17.2804 261.108 16.6609C261.827 16.0414 262.68 15.5504 263.617 15.216C264.557 14.8817 265.563 14.7108 266.577 14.7133Z" stroke="#120071" stroke-width="1.5" stroke-linecap="round" stroke-linejoin="round"/>
</svg>
